<svg width="70" height="70" viewBox="0 0 70 70" fill="none" xmlns="http://www.w3.org/2000/svg">
<path fill-rule="evenodd" clip-rule="evenodd" d="M21.8411 67.2391C26.0916 69.0378 30.6615 69.96 35.277 69.9505C39.8922 69.9596 44.4618 69.0367 48.7118 67.2371C52.8131 65.5034 56.5396 62.9915 59.6854 59.8403C62.8371 56.6956 65.349 52.9697 67.0822 48.8687C68.8807 44.6181 69.8032 40.0483 69.7946 35.4329C69.8032 30.8181 68.8811 26.2491 67.0832 21.999C65.3503 17.8979 62.8383 14.1718 59.6864 11.0274C56.5422 7.87406 52.8153 5.3616 48.7128 3.62958C44.4627 1.82921 39.8927 0.905951 35.277 0.915193C30.6615 0.905125 26.0916 1.82701 21.8411 3.62558C17.7392 5.35762 14.013 7.8701 10.8695 11.0234C7.71729 14.1678 5.20496 17.8938 3.47167 21.995C1.67296 26.2463 0.750428 30.8167 0.759281 35.4329C0.750428 40.049 1.67296 44.6195 3.47167 48.8707C5.2053 52.9717 7.71758 56.6977 10.8695 59.8424C14.0143 62.9938 17.7402 65.5057 21.8411 67.2391ZM28.2734 27.9287C28.2766 26.8249 29.1706 25.931 30.2744 25.9277C30.6256 25.9252 30.971 26.0167 31.2749 26.1928L44.2906 33.7286C44.9127 34.0825 45.2953 34.7448 45.2911 35.4605C45.2949 36.1759 44.9124 36.8377 44.2906 37.1914L31.2749 44.7283C30.9715 44.9061 30.6261 44.9997 30.2744 44.9994C29.1706 44.9961 28.2766 44.1022 28.2734 42.9984L28.2734 27.9287Z" fill="#FF7A8A"/>
</svg>
